<?xml version="1.0" encoding="UTF-8"?>
<svg xmlns="http://www.w3.org/2000/svg" width="186" height="36" viewBox="0 0 186 36" fill="none">
  <g clip-path="url(#clip0_9883_33080)">
    <mask id="mask0_9883_33080" style="mask-type:luminance" maskUnits="userSpaceOnUse" x="0" y="0" width="186" height="36">
      <path d="M186 0H0V35.7506H186V0Z" fill="white"></path>
    </mask>
    <g mask="url(#mask0_9883_33080)">
      <mask id="mask1_9883_33080" style="mask-type:luminance" maskUnits="userSpaceOnUse" x="0" y="0" width="186" height="36">
        <path d="M186 0H0V35.7506H186V0Z" fill="white"></path>
      </mask>
      <g mask="url(#mask1_9883_33080)">
        <path d="M13.0535 6.49854H9.79104C4.39332 6.49854 0 10.8743 0 16.2504C0 21.6265 4.39332 26.0023 9.79104 26.0023C15.1888 26.0023 19.5821 21.6265 19.5821 16.2504V13.001H13.0572L19.5821 6.50224H13.0572L13.0535 6.49854ZM13.0535 12.9973V16.2467C13.0535 18.04 11.5878 19.4961 9.79104 19.4961C7.99428 19.4961 6.5286 18.0363 6.5286 16.2467C6.5286 14.4571 7.99428 12.9973 9.79104 12.9973H13.0535Z" fill="#003366"></path>
        <path d="M19.5786 0H13.0537V6.49877H19.5786V0Z" fill="#66CCFF"></path>
        <path d="M30.4561 26.0023C25.0584 26.0023 20.665 21.6265 20.665 16.2504C20.665 10.8743 25.0584 6.49854 30.4561 6.49854C35.8538 6.49854 40.2471 10.8743 40.2471 16.2504C40.2471 21.6265 35.8538 26.0023 30.4561 26.0023ZM30.4561 13.001C28.6556 13.001 27.1936 14.4608 27.1936 16.2504C27.1936 18.04 28.6593 19.4998 30.4561 19.4998C32.2528 19.4998 33.7185 18.04 33.7185 16.2504C33.7185 14.4608 32.2528 13.001 30.4561 13.001Z" fill="#003366"></path>
        <path d="M51.124 26.0023C45.7263 26.0023 41.333 21.6265 41.333 16.2504C41.333 10.8743 45.7263 6.49854 51.124 6.49854H60.9151V16.2504C60.9151 21.6265 56.5218 26.0023 51.124 26.0023ZM51.124 13.001C49.3236 13.001 47.8616 14.4608 47.8616 16.2504C47.8616 18.04 49.3273 19.4998 51.124 19.4998C52.9208 19.4998 54.3865 18.04 54.3865 16.2504V13.001H51.124Z" fill="#003366"></path>
        <path d="M51.124 35.7509C45.7263 35.7509 41.333 31.3751 41.333 25.999H47.8579C47.8579 27.7923 49.3236 29.2484 51.1203 29.2484C52.9171 29.2484 54.3828 27.7886 54.3828 25.999H60.9076C60.9076 31.3751 56.5143 35.7509 51.1166 35.7509" fill="#003366"></path>
        <path d="M94.6332 26.0023H88.1083V16.2504C88.1083 14.4571 86.6426 13.001 84.8459 13.001C83.0491 13.001 81.5834 14.4608 81.5834 16.2504V26.0023H75.0586V16.2504C75.0586 14.4571 73.5929 13.001 71.7961 13.001C69.9993 13.001 68.5337 14.4608 68.5337 16.2504V26.0023H62.0088V16.2504C62.0088 10.8743 66.4021 6.49854 71.7998 6.49854C74.3034 6.49854 76.5912 7.43963 78.3247 8.98837C80.0582 7.44334 82.346 6.49854 84.8496 6.49854C90.2473 6.49854 94.6406 10.8743 94.6406 16.2504V26.0023H94.6332Z" fill="#003366"></path>
        <path d="M115.298 26.0023H105.507C100.109 26.0023 95.7158 21.6265 95.7158 16.2504C95.7158 10.8743 100.109 6.49854 105.507 6.49854C110.905 6.49854 115.298 10.8743 115.298 16.2504V26.0023ZM105.507 13.001C103.706 13.001 102.244 14.4608 102.244 16.2504C102.244 18.04 103.71 19.4998 105.507 19.4998H108.769V16.2504C108.769 14.4571 107.304 13.001 105.507 13.001Z" fill="#003366"></path>
        <path d="M125.632 26.0024C122.035 26.0024 119.107 23.0865 119.107 19.5037C119.107 15.9208 122.035 13.0049 125.632 13.0049H132.157V19.5037C132.157 23.0865 129.23 26.0024 125.632 26.0024ZM125.632 16.2506C123.832 16.2506 122.37 17.7104 122.37 19.4999C122.37 21.2895 123.836 22.7493 125.632 22.7493C127.429 22.7493 128.895 21.2895 128.895 19.4999V16.2506H125.632Z" fill="#66CCFF"></path>
        <path d="M125.632 32.5015C122.035 32.5015 119.107 29.5856 119.107 26.0027H122.37C122.37 27.796 123.836 29.2521 125.632 29.2521C127.429 29.2521 128.895 27.7923 128.895 26.0027V13.0015H132.157V26.0027C132.157 29.5856 129.23 32.5015 125.632 32.5015Z" fill="#66CCFF"></path>
        <path d="M137.595 26.0027H134.333V18.5258C134.333 15.4802 136.822 13.0015 139.88 13.0015H142.491V16.2509H139.88C138.618 16.2509 137.595 17.2698 137.595 18.5258V26.0027Z" fill="#66CCFF"></path>
        <path d="M176.209 32.5015H172.946V19.5002C172.946 15.9174 175.874 13.0015 179.471 13.0015C183.068 13.0015 185.996 15.9174 185.996 19.5002C185.996 23.0831 183.068 25.999 179.471 25.999H176.209V32.4978V32.5015ZM176.209 22.7496H179.471C181.272 22.7496 182.734 21.2898 182.734 19.5002C182.734 17.7107 181.268 16.2509 179.471 16.2509C177.674 16.2509 176.209 17.7107 176.209 19.5002V22.7496Z" fill="#66CCFF"></path>
        <path d="M150.106 26.0024C146.509 26.0024 143.581 23.0865 143.581 19.5037C143.581 15.9208 146.509 13.0049 150.106 13.0049C153.703 13.0049 156.631 15.9208 156.631 19.5037C156.631 23.0865 153.703 26.0024 150.106 26.0024ZM150.106 16.2506C148.305 16.2506 146.843 17.7104 146.843 19.4999C146.843 21.2895 148.309 22.7493 150.106 22.7493C151.903 22.7493 153.368 21.2895 153.368 19.4999C153.368 17.7104 151.903 16.2506 150.106 16.2506Z" fill="#66CCFF"></path>
        <path d="M164.789 26.0024C161.191 26.0024 158.264 23.0865 158.264 19.5037V13.0049H161.526V19.5037C161.526 21.2969 162.992 22.753 164.789 22.753C166.585 22.753 168.051 21.2932 168.051 19.5037V13.0049H171.313V19.5037C171.313 23.0865 168.386 26.0024 164.789 26.0024Z" fill="#66CCFF"></path>
      </g>
    </g>
  </g>
  <defs>
    <clipPath id="clip0_9883_33080">
      <rect width="186" height="35.7506" fill="white"></rect>
    </clipPath>
  </defs>
</svg>
