<?xml version="1.0" encoding="UTF-8"?>
<svg id="Layer_1" data-name="Layer 1" xmlns="http://www.w3.org/2000/svg" xmlns:xlink="http://www.w3.org/1999/xlink" viewBox="0 0 165 43.49">
  <defs>
    <style>
      .cls-1, .cls-2, .cls-3 {
        fill: none;
      }

      .cls-2 {
        clip-path: url(#clippath-1);
      }

      .cls-4 {
        fill: #ff49fc;
      }

      .cls-5 {
        fill: #306;
      }

      .cls-3 {
        clip-path: url(#clippath);
      }
    </style>
    <clipPath id="clippath">
      <rect class="cls-1" width="165" height="43.49"/>
    </clipPath>
    <clipPath id="clippath-1">
      <rect class="cls-1" width="165" height="43.49"/>
    </clipPath>
  </defs>
  <g id="Main_logo" data-name="Main logo">
    <g class="cls-3">
      <rect class="cls-5" x="22.09" y="10.36" width="8.28" height="24.85"/>
      <rect class="cls-5" x="51.09" y="10.36" width="8.28" height="24.85"/>
      <rect class="cls-4" x="8.28" y="2.07" width="8.28" height="8.28"/>
      <g class="cls-2">
        <path class="cls-5" d="m10.36,35.21H0v-8.28h10.36c.8,0,1.31-.43,1.54-.68.23-.25.6-.8.52-1.62-.1-1-1.21-1.84-2.41-1.84C4.49,22.78,0,18.3,0,12.78v-2.42h8.28v2.42c0,.95.77,1.72,1.72,1.72,5.45,0,10.13,4.09,10.66,9.3.29,2.92-.66,5.84-2.62,8-1.96,2.17-4.76,3.41-7.68,3.41"/>
        <path class="cls-5" d="m26.23,8.28h0c-2.29,0-4.14-1.85-4.14-4.14S23.95,0,26.23,0s4.14,1.85,4.14,4.14-1.85,4.14-4.14,4.14"/>
        <path class="cls-5" d="m55.23,8.28h0c-2.29,0-4.14-1.85-4.14-4.14S52.94,0,55.23,0s4.14,1.85,4.14,4.14-1.85,4.14-4.14,4.14"/>
        <path class="cls-5" d="m40.73,35.21h-8.28v-12.43c0-6.85,5.57-12.43,12.43-12.43h4.14v8.28h-4.14c-2.28,0-4.14,1.86-4.14,4.14v12.43Z"/>
        <path class="cls-5" d="m73.87,35.21c-6.85,0-12.43-5.57-12.43-12.43v-12.43h8.28v12.43c0,2.28,1.86,4.14,4.14,4.14s4.14-1.86,4.14-4.14v-12.43h8.28v12.43c0,6.85-5.57,12.43-12.43,12.43"/>
        <path class="cls-5" d="m97.47,35.21h-9.1v-8.28h6.74l-4.11-3.29c-2.51-2.01-3.44-5.26-2.38-8.29,1.06-3.03,3.82-4.99,7.04-4.99h9.28v8.28h-6.92l4.11,3.29c2.51,2.01,3.44,5.26,2.38,8.29-1.06,3.03-3.82,4.99-7.04,4.99"/>
        <path class="cls-4" d="m127.03,35.21h-8.28c-4.57,0-8.28-3.72-8.28-8.28s3.72-8.28,8.28-8.28,8.28,3.72,8.28,8.28v8.28Zm-8.28-12.43c-2.28,0-4.14,1.86-4.14,4.14s1.86,4.14,4.14,4.14h4.14v-4.14c0-2.28-1.86-4.14-4.14-4.14"/>
        <path class="cls-4" d="m133.93,43.49h-4.14v-16.57c0-4.57,3.72-8.28,8.28-8.28s8.28,3.72,8.28,8.28-3.72,8.28-8.28,8.28h-4.14v8.28Zm0-12.43h4.14c2.28,0,4.14-1.86,4.14-4.14s-1.86-4.14-4.14-4.14-4.14,1.86-4.14,4.14v4.14Z"/>
        <path class="cls-4" d="m152.57,43.49h-4.14v-16.57c0-4.57,3.72-8.28,8.28-8.28s8.28,3.72,8.28,8.28-3.72,8.28-8.28,8.28h-4.14v8.28Zm0-12.43h4.14c2.28,0,4.14-1.86,4.14-4.14s-1.86-4.14-4.14-4.14-4.14,1.86-4.14,4.14v4.14Z"/>
      </g>
    </g>
  </g>
</svg>